<?xml version="1.0" standalone="no"?>
<!DOCTYPE svg PUBLIC "-//W3C//DTD SVG 20010904//EN"
 "http://www.w3.org/TR/2001/REC-SVG-20010904/DTD/svg10.dtd">
<svg version="1.0" xmlns="http://www.w3.org/2000/svg"
 width="500.000000pt" height="500.000000pt" viewBox="0 0 500.000000 500.000000"
 preserveAspectRatio="xMidYMid meet">
<metadata>
Created by potrace 1.14, written by Peter Selinger 2001-2017
</metadata>
<g transform="translate(0.000000,500.000000) scale(0.100000,-0.100000)"
fill="#000000" stroke="none">
<path d="M915 4395 c-76 -21 -135 -49 -192 -92 -68 -51 -108 -102 -151 -191
-33 -69 -35 -82 -43 -210 -4 -75 -7 -776 -6 -1557 l2 -1420 23 -59 c73 -193
227 -321 415 -346 51 -6 573 -10 1490 -10 1528 0 1539 1 1643 53 127 64 216
171 260 312 l25 80 -3 1535 -3 1535 -27 63 c-68 160 -188 264 -353 308 -74 20
-3006 19 -3080 -1z m2810 -159 c48 -21 71 -67 56 -118 -7 -21 -21 -44 -31 -51
-19 -11 -20 -25 -20 -287 0 -260 1 -276 19 -287 11 -7 24 -28 31 -48 17 -51
-11 -104 -64 -124 -36 -14 -41 -13 -80 7 -31 17 -58 22 -113 22 l-72 0 -8 43
-9 42 77 3 c70 3 77 5 87 28 7 13 19 27 27 30 13 5 15 46 15 285 0 223 -3 280
-14 286 -34 20 -48 102 -23 133 17 22 59 50 75 50 7 0 28 -6 47 -14z m-207
-33 c5 -10 8 -110 6 -223 -3 -190 -5 -206 -24 -221 -29 -24 -41 -64 -30 -94 5
-14 14 -25 20 -25 16 0 41 -46 34 -64 -5 -12 -20 -16 -68 -15 l-61 0 -28 57
c-68 139 -225 316 -358 404 -81 54 -231 113 -348 138 -88 19 -124 22 -240 17
-91 -3 -161 -12 -213 -25 -286 -77 -509 -252 -645 -508 l-45 -85 -67 3 c-63 3
-66 4 -69 30 -3 21 3 30 26 42 39 20 88 77 100 118 25 80 24 86 -7 102 -33 17
-44 47 -30 83 12 31 2 48 -55 101 -44 41 -46 44 -46 100 0 32 5 63 12 70 9 9
260 12 1070 12 997 0 1058 -1 1066 -17z m-2526 -38 c99 -75 98 -216 -1 -282
-52 -35 -135 -32 -188 6 -42 31 -73 89 -73 140 0 45 42 113 86 139 49 29 135
27 176 -3z m3087 10 c67 -34 109 -119 91 -185 -24 -88 -78 -130 -167 -130 -84
0 -145 56 -159 146 -10 71 38 151 106 177 30 11 101 7 129 -8z m-2789 -20 c15
-14 17 -31 12 -126 -5 -104 -4 -111 17 -125 29 -21 51 -66 51 -106 0 -36 -31
-95 -55 -104 -11 -5 -15 -24 -15 -80 0 -62 -3 -75 -19 -84 -55 -29 -84 2 -79
86 3 58 1 65 -26 93 -23 24 -30 42 -34 84 -4 49 -1 56 31 95 33 39 35 46 35
109 0 37 -5 80 -10 95 -21 58 47 104 92 63z m1356 -175 c194 -50 359 -162 486
-331 139 -186 184 -462 113 -704 -80 -273 -301 -490 -570 -557 -124 -31 -314
-31 -433 0 -202 52 -380 185 -483 360 -93 157 -129 275 -129 427 0 309 176
595 453 734 138 69 223 90 368 90 85 1 137 -4 195 -19z m1282 -228 l62 -58 0
-205 c0 -230 -9 -265 -71 -310 -33 -23 -41 -24 -246 -27 l-213 -3 0 45 0 46
190 -3 190 -2 24 25 c25 25 25 27 26 214 l2 189 -41 41 c-42 42 -51 72 -29 94
22 22 42 13 106 -46z m226 22 c14 -13 16 -58 16 -335 l0 -319 -24 -11 c-30
-14 -63 2 -71 34 -3 12 -4 156 -3 320 3 282 4 299 22 313 25 18 41 18 60 -2z
m-3293 -33 c17 -18 29 -40 29 -56 0 -37 -50 -85 -88 -85 -47 0 -82 34 -82 81
0 83 83 118 141 60z m178 -26 c11 -25 32 -56 47 -70 15 -14 25 -27 22 -30 -2
-2 -30 0 -62 5 -31 5 -63 7 -71 3 -12 -4 -15 7 -15 60 0 43 4 67 13 70 32 14
47 5 66 -38z m-240 -208 c8 -10 11 -216 11 -714 l1 -700 24 -23 c53 -49 53
-111 1 -159 -22 -21 -26 -33 -26 -78 l0 -54 -42 3 -43 3 -3 55 c-2 39 -9 62
-24 77 -11 12 -22 41 -25 65 -4 36 -1 47 21 71 l26 28 4 687 c2 378 4 698 5
711 2 39 46 56 70 28z m273 -37 l30 -30 189 0 190 0 -7 -37 c-4 -21 -9 -41
-11 -45 -2 -5 -85 -8 -183 -8 -176 0 -180 0 -217 -26 -61 -41 -125 -22 -153
47 -40 97 86 175 162 99z m264 -255 c19 -19 35 -25 69 -25 l45 0 0 -45 0 -45
-50 0 c-27 0 -50 -5 -50 -10 0 -17 -63 -50 -93 -50 -45 0 -97 57 -97 107 0 62
35 92 108 93 33 0 49 -6 68 -25z m-280 -5 c22 0 24 -4 24 -44 l0 -43 -60 -6
c-32 -4 -66 -4 -75 -1 -21 9 -30 51 -16 81 11 24 15 25 58 19 25 -3 56 -6 69
-6z m2804 -160 c27 -29 31 -30 122 -30 112 0 149 -17 178 -83 19 -40 20 -75
20 -876 l0 -833 25 -30 c14 -17 25 -42 25 -59 0 -32 -25 -89 -39 -89 -4 0 -11
-40 -14 -89 -3 -49 -12 -103 -21 -119 -60 -115 -224 -122 -281 -12 -11 22 -15
68 -15 191 l0 163 -27 29 c-22 22 -28 38 -28 74 0 37 5 49 28 67 l27 22 -2
647 c-3 605 -4 647 -21 664 -16 16 -43 18 -247 21 -127 2 -230 5 -230 7 0 3 7
23 16 45 l17 41 227 -3 227 -3 37 -29 c68 -52 66 -25 66 -746 0 -576 2 -651
15 -657 9 -3 23 -19 31 -35 20 -39 11 -88 -21 -118 -25 -23 -25 -26 -25 -176
l0 -153 27 -20 c30 -24 58 -20 86 11 13 15 17 38 17 90 0 57 -4 75 -25 106
-14 20 -25 51 -25 69 0 19 10 43 25 61 l25 30 0 834 c0 702 -2 837 -14 853
-12 16 -29 20 -96 23 -78 4 -84 3 -106 -21 -13 -14 -33 -28 -45 -32 -34 -11
-87 4 -108 30 -18 24 -23 25 -145 25 -137 0 -135 -1 -120 58 6 21 11 22 121
22 114 0 116 0 150 30 26 23 43 30 74 30 33 0 47 -6 69 -30z m-2416 -81 c15
-12 25 -27 22 -34 -2 -7 -1 -16 4 -21 4 -5 13 -27 20 -49 24 -75 106 -232 156
-296 27 -35 48 -68 46 -72 -1 -5 2 -6 7 -3 5 3 24 -11 43 -32 58 -64 219 -178
278 -197 11 -4 17 -11 14 -17 -4 -6 -3 -8 3 -5 5 3 59 -10 119 -30 l109 -36
185 -1 c204 0 241 6 394 68 76 30 208 108 244 143 7 7 17 13 21 13 3 0 23 16
44 36 21 20 40 34 44 30 3 -3 1 -6 -6 -6 -7 0 -9 -4 -6 -10 3 -5 1 -10 -5 -10
-6 0 -9 -4 -6 -9 4 -5 0 -11 -6 -13 -22 -8 -16 -136 9 -183 29 -54 85 -108
136 -131 23 -10 43 -19 45 -20 2 -1 -1 -12 -8 -23 -10 -21 -17 -21 -324 -21
l-313 0 -7 -30 c-7 -37 -43 -54 -81 -40 -17 6 -27 20 -31 40 l-6 30 -99 0
c-95 0 -99 1 -132 30 l-35 30 -390 0 -390 0 -51 40 c-28 22 -68 46 -88 53
l-36 12 -2 85 c-1 105 -15 133 -101 216 -35 34 -64 69 -64 77 0 9 25 44 55 78
67 75 92 144 78 217 -8 45 -7 49 24 80 38 38 51 39 87 11z m-282 -66 c62 -61
64 -90 7 -155 -32 -38 -47 -48 -71 -48 -43 0 -96 28 -115 61 -10 16 -21 29
-24 29 -4 0 -7 15 -7 33 1 35 32 77 83 108 48 30 74 24 127 -28z m2605 -724
c2 -272 -1 -397 -9 -406 -7 -9 -37 -13 -93 -13 -69 0 -87 4 -116 23 -55 37
-45 52 35 52 55 1 71 4 82 20 11 15 14 87 14 376 l0 358 23 4 c12 2 31 -2 42
-9 19 -11 20 -23 22 -405z m-271 342 c77 -35 117 -117 95 -193 -23 -76 -88
-128 -161 -128 -82 0 -149 51 -170 131 -20 73 21 157 94 190 52 23 90 23 142
0z m-2411 -1 c32 -12 25 -26 -17 -35 -18 -4 -55 -29 -83 -56 -47 -44 -53 -47
-71 -34 -19 14 -19 14 1 52 36 68 105 98 170 73z m73 -121 c35 -12 82 -74 82
-110 0 -38 -45 -96 -84 -109 -75 -24 -166 35 -166 110 0 38 35 88 75 106 37
16 54 17 93 3z m-133 -301 l45 -22 -2 -171 -3 -170 -45 0 -45 0 -3 193 c-1
105 0 192 3 192 2 0 25 -10 50 -22z m2509 -17 c26 -29 18 -82 -16 -101 -25
-13 -31 -13 -55 0 -34 19 -44 78 -18 104 22 22 68 20 89 -3z m-2144 -10 c90
-48 123 -146 78 -230 -84 -156 -331 -84 -315 92 7 82 88 157 167 157 19 0 51
-8 70 -19z m244 -87 c14 -5 16 -27 16 -140 l0 -134 50 0 50 0 0 129 c0 138 7
160 50 146 19 -6 20 -14 20 -141 l0 -134 50 0 50 0 0 128 c0 132 5 152 42 152
25 0 26 -5 33 -152 l7 -128 44 0 44 0 0 129 c0 141 7 159 55 147 l25 -6 0
-135 0 -135 50 0 50 0 0 135 0 135 25 6 c48 12 55 -6 55 -146 l0 -128 26 -6
c16 -4 30 -19 40 -41 14 -35 15 -35 79 -35 l65 0 0 -40 0 -40 -70 0 -70 0 0
-50 0 -50 39 0 c21 0 53 -3 70 -6 28 -6 31 -10 31 -45 l0 -39 -70 0 -70 0 0
-50 0 -50 70 0 70 0 0 -45 0 -45 -70 0 -70 0 0 -50 0 -50 70 0 70 0 0 -39 c0
-37 -2 -39 -37 -45 -21 -3 -53 -6 -70 -6 -29 0 -33 -3 -33 -25 0 -29 -40 -75
-65 -75 -15 0 -16 -11 -10 -98 8 -109 -1 -130 -50 -118 -25 6 -25 8 -25 111
l0 105 -50 0 -49 0 -3 -107 c-3 -108 -3 -108 -29 -111 -42 -5 -51 16 -47 122
l3 96 -54 0 -53 0 6 -90 c8 -95 -1 -130 -32 -130 -35 0 -42 21 -42 122 l0 98
-50 0 -50 0 0 -105 c0 -89 -3 -107 -16 -112 -38 -14 -49 9 -52 116 l-3 101
-49 0 -49 0 -3 -107 c-3 -106 -3 -108 -27 -111 -40 -6 -51 21 -51 122 0 90 0
91 -29 108 -21 11 -33 29 -41 58 l-11 42 -85 -7 c-74 -6 -88 -4 -105 11 -10 9
-19 25 -19 34 0 32 22 40 117 40 68 0 93 3 93 13 0 6 3 29 6 50 l7 37 -100 0
c-104 0 -123 7 -123 45 0 38 19 45 116 45 85 0 92 1 97 21 3 12 3 35 0 50 l-5
29 -92 0 c-98 0 -116 7 -116 47 0 34 31 44 128 41 l87 -3 0 50 0 50 -94 3
c-97 3 -121 11 -121 42 0 34 27 44 121 42 l89 -2 14 35 c10 22 24 37 40 41
l26 6 0 127 c0 146 9 166 64 145z m916 -64 c24 -24 25 -48 4 -78 -18 -26 -65
-30 -88 -6 -9 8 -16 28 -16 44 0 56 60 80 100 40z m459 6 c7 -8 11 -32 9 -53
-3 -38 -3 -38 -50 -41 l-48 -3 0 49 c0 27 3 52 7 55 12 13 70 7 82 -7z m189
-43 l3 -53 -45 0 -46 0 0 48 c0 27 3 52 7 56 4 4 23 6 43 4 35 -3 35 -3 38
-55z m190 45 c7 -7 12 -31 12 -55 l0 -43 -50 0 -50 0 0 48 c0 27 3 52 7 55 11
12 68 8 81 -5z m-584 -21 c13 -9 17 -23 14 -51 -4 -48 -25 -64 -65 -50 -22 7
-29 17 -31 43 -6 56 40 89 82 58z m396 -597 l0 -420 -145 0 -145 0 0 420 0
420 145 0 145 0 0 -420z m251 410 c10 -6 26 -24 34 -40 11 -21 23 -30 47 -32
31 -3 33 -6 36 -45 l3 -42 -82 -3 c-69 -3 -84 -6 -95 -23 -11 -16 -11 -25 -1
-45 12 -23 18 -25 95 -28 l82 -3 0 -49 0 -50 -85 0 c-73 0 -86 -3 -95 -19 -14
-28 -13 -38 10 -61 16 -16 33 -20 95 -20 l75 0 0 -45 0 -45 -75 0 c-62 0 -79
-4 -95 -20 -24 -24 -24 -29 -4 -58 13 -20 24 -22 95 -22 l80 0 -3 -47 c-3 -46
-4 -48 -36 -51 -23 -2 -36 -11 -47 -31 -19 -38 -60 -53 -131 -49 l-59 3 -3
418 -2 417 71 0 c38 0 79 -5 90 -10z m-641 -390 l0 -371 -37 7 c-21 3 -49 17
-63 30 l-25 24 0 310 0 309 29 30 c22 22 39 31 63 31 l33 0 0 -370z m-2008
323 c19 -17 22 -50 12 -127 l-7 -46 -43 0 -44 0 0 85 c0 69 3 86 18 94 25 15
43 13 64 -6z m2953 -18 c29 -28 31 -51 9 -83 -31 -45 -114 -18 -114 37 0 31 8
44 35 59 30 17 43 15 70 -13z m-2660 -49 c61 -26 75 -63 75 -204 0 -133 -11
-178 -51 -206 -30 -20 -101 -21 -140 0 -46 23 -59 66 -59 196 0 151 9 180 63
207 50 25 66 26 112 7z m-290 -232 c21 -21 16 -151 -6 -165 -24 -15 -58 -10
-69 10 -14 27 -13 144 2 159 17 17 54 15 73 -4z m2954 -108 c38 -45 9 -110
-48 -108 -18 0 -39 6 -47 13 -17 14 -18 70 -1 91 20 27 75 30 96 4z m-2803
-185 c107 -49 133 -184 50 -267 -66 -66 -166 -66 -232 0 -64 64 -67 161 -6
228 52 58 117 71 188 39z m2801 -33 c20 -16 25 -59 8 -84 -18 -27 -69 -33 -99
-11 -27 20 -18 88 14 104 25 12 54 9 77 -9z m-2489 -206 c36 -46 -8 -112 -65
-97 -33 8 -43 21 -43 57 0 55 74 83 108 40z m177 3 c40 -40 32 -88 -18 -100
-63 -16 -103 59 -57 105 26 26 46 25 75 -5z m1107 -16 c15 -20 17 -30 9 -51
-17 -46 -94 -50 -110 -5 -9 24 3 67 22 79 22 15 60 3 79 -23z m1196 14 c32
-28 38 -67 13 -92 -41 -41 -111 -16 -111 38 0 31 8 44 35 59 28 16 40 15 63
-5z m-948 -21 c40 -33 21 -102 -29 -102 -47 0 -69 76 -29 104 28 20 31 20 58
-2z m217 -28 c3 -8 1 -29 -4 -47 -7 -25 -15 -33 -36 -35 -39 -5 -57 14 -57 59
l0 39 45 0 c32 0 47 -5 52 -16z m181 -31 l-3 -48 -40 0 -40 0 -3 48 -3 47 46
0 46 0 -3 -47z m202 23 c0 -48 -17 -76 -48 -76 -38 0 -52 17 -52 62 l0 38 50
0 c46 0 50 -2 50 -24z"/>
<path d="M873 4090 c-69 -28 -48 -133 27 -133 59 0 91 67 53 111 -22 25 -51
33 -80 22z"/>
<path d="M3990 4093 c-64 -24 -67 -109 -4 -133 53 -21 106 38 85 93 -8 21 -51
52 -64 46 -1 0 -9 -3 -17 -6z"/>
<path d="M2355 3797 c-90 -30 -139 -72 -190 -161 -23 -39 -29 -65 -33 -130 -4
-69 -8 -83 -28 -98 -31 -25 -74 -115 -74 -155 0 -26 -6 -36 -31 -48 -51 -27
-109 -86 -136 -139 -30 -60 -35 -159 -11 -216 22 -51 83 -116 136 -148 l47
-27 402 -3 c252 -2 417 1 441 7 137 37 230 192 193 326 -6 22 -25 63 -43 90
-28 44 -32 57 -29 106 5 106 -57 201 -155 238 l-49 19 -7 58 c-15 112 -86 212
-189 265 -54 27 -184 36 -244 16z m215 -135 c33 -20 52 -42 73 -81 31 -63 34
-103 10 -162 -24 -60 -12 -72 71 -73 67 -1 68 -1 112 -48 35 -37 44 -54 44
-82 0 -34 -2 -36 -35 -36 -26 0 -39 -6 -51 -25 -25 -39 -7 -71 45 -78 48 -6
99 -40 112 -74 28 -73 -2 -157 -71 -197 -30 -18 -56 -21 -202 -24 l-168 -4 0
43 c0 41 5 48 77 121 78 78 78 78 63 106 -22 39 -54 40 -98 1 l-37 -33 -3 48
c-3 47 -3 48 67 113 74 68 86 96 55 127 -23 24 -49 19 -89 -15 l-35 -31 0 91
c0 78 -3 94 -20 111 -24 24 -47 25 -72 3 -15 -13 -18 -32 -18 -112 l0 -95 -33
32 c-35 34 -56 39 -88 22 -39 -21 -24 -60 52 -136 68 -68 70 -72 67 -114 l-3
-44 -36 32 c-55 48 -109 40 -109 -17 0 -18 21 -44 75 -94 72 -67 75 -72 75
-114 l0 -45 -162 4 c-143 3 -168 6 -204 25 -50 27 -74 72 -74 143 0 84 46 143
122 156 67 12 88 24 88 55 0 15 -4 31 -10 34 -15 9 -12 63 6 100 11 23 28 39
56 50 44 17 42 7 23 120 -10 60 10 120 55 165 73 73 180 85 270 32z"/>
<path d="M1480 2661 c0 -6 4 -12 8 -15 5 -3 9 1 9 9 0 8 -4 15 -9 15 -4 0 -8
-4 -8 -9z"/>
<path d="M1603 2366 c-92 -42 -80 -188 18 -217 37 -12 45 -11 84 10 74 39 88
116 33 176 -39 42 -87 53 -135 31z"/>
<path d="M3375 2415 c-14 -13 -25 -33 -25 -44 0 -32 42 -73 75 -73 33 0 75 41
75 73 0 28 -44 69 -75 69 -14 0 -37 -11 -50 -25z"/>
<path d="M1285 1978 c-27 -15 -35 -28 -35 -60 0 -37 32 -68 70 -68 17 0 39 9
50 20 58 58 -13 149 -85 108z"/>
<path d="M1683 1573 c-18 -7 -19 -503 -1 -521 16 -16 510 -17 539 -2 18 10 19
24 19 260 0 236 -1 250 -19 260 -20 10 -513 13 -538 3z m447 -263 l0 -160
-175 0 -175 0 0 160 0 160 175 0 175 0 0 -160z"/>
<path d="M3021 1561 c-25 -25 -27 -49 -5 -79 19 -28 57 -29 84 -2 35 35 20 83
-32 95 -19 5 -32 1 -47 -14z"/>
<path d="M3032 1359 c-49 -18 -30 -109 23 -109 29 0 65 32 65 58 0 40 -45 67
-88 51z"/>
<path d="M3021 1141 c-25 -25 -27 -49 -5 -79 19 -28 57 -29 84 -2 35 35 20 83
-32 95 -19 5 -32 1 -47 -14z"/>
<path d="M1012 1508 c-28 -28 -7 -78 33 -78 12 0 26 5 33 12 7 7 12 21 12 33
0 12 -5 26 -12 33 -7 7 -21 12 -33 12 -12 0 -26 -5 -33 -12z"/>
<path d="M1018 1329 c-33 -19 -10 -89 30 -89 38 0 56 72 23 90 -24 12 -31 12
-53 -1z"/>
<path d="M846 959 c-50 -39 -22 -119 42 -119 35 0 72 37 72 71 0 32 -34 69
-64 69 -13 0 -35 -9 -50 -21z"/>
</g>
</svg>
